<?xml version="1.0" encoding="UTF-8"?>
<svg id="Layer_2" data-name="Layer 2" xmlns="http://www.w3.org/2000/svg" viewBox="0 0 211.21 211.21">
  <defs>
    
  </defs>
  <g id="Layer_1" data-name="Layer 1">
    <g>
      <rect class="cls-2" width="211.21" height="211.21"></rect>
      <g>
        <rect class="cls-1" x="48.3" y="136.49" width="26.42" height="26.42"></rect>
        <path class="cls-1" d="M156.1,48.18c-23.23,0-43.04,14.65-50.7,35.21,0,0,0,0,0,0,0,.02,0,.03-.01.05-.69,1.87-1.28,3.78-1.77,5.74-5.26,15.67-11.51,22.38-23.11,33.98l2.02,2.02-12.98-12.98h0c11.8,0,21.36-9.56,21.36-21.36.41-11.67-8.93-21.36-20.61-21.36h-.75c-11.8,0-21.36,9.56-21.36,21.36h21.36v21.36l-10.68-10.68-9.56,9.56,50.82,50.82,9.56-9.56-10.68-10.68h21.36v21.36c11.8,0,21.36-9.56,21.36-21.36v-.75c0-11.68-9.69-21.03-21.36-20.61-11.8,0-21.36,9.56-21.36,21.36l-12.69-12.69,1.74,1.73c11.6-11.6,18.31-17.85,33.99-23.11,1.95-.49,3.87-1.07,5.73-1.77.02,0,.04-.01.06-.02,0,0,0,0,0,0,20.56-7.66,35.21-27.47,35.21-50.7v-6.94h-6.93Z"></path>
      </g>
    </g>
  </g>
</svg>