<?xml version="1.0" encoding="UTF-8"?>
<svg id="Layer_2" data-name="Layer 2" xmlns="http://www.w3.org/2000/svg" viewBox="0 0 269.93 153.37">
  <defs>
    
  </defs>
  <g id="Layer_1" data-name="Layer 1">
    <g>
      <path class="cls-1" d="M26.83,27.61h0c.26-7.33-5.61-13.42-12.95-13.42h-.47C6.01,14.2,0,20.2,0,27.61h0s13.42,0,13.42,0v13.42c7.41,0,13.42-6.01,13.42-13.42Z"></path>
      <path class="cls-1" d="M35.94,22.93s0,0,0,0c0,.01,0,.02,0,.03-.43,1.15-.79,2.33-1.1,3.54-3.31,9.88-7.23,14.11-14.53,21.41l-6.89-6.89-6.71-6.71-6,6,15.96,15.96H.08v16.59h16.59v-16.59l15.96,15.96,6-6-6.71-6.71h13.42v13.42c7.41,0,13.42-6.01,13.42-13.42v-.47c0-7.34-6.09-13.21-13.42-12.95-7.41,0-13.42,6.01-13.42,13.42l-6.88-6.88c7.3-7.3,11.53-11.22,21.41-14.53,1.2-.3,2.38-.67,3.53-1.09.01,0,.02,0,.04-.01,0,0,0,0,0,0,12.92-4.81,22.12-17.25,22.12-31.85V.81h-4.35c-14.59,0-27.04,9.2-31.85,22.12Z"></path>
      <path class="cls-1" d="M127.78,55.03c0-20.38-21.91-23.13-21.91-37.8,0-5.09,2.04-7.03,5.6-7.03s5.6,1.94,5.6,7.03v2.96h10.6v-2.24c0-11.41-5.6-17.93-16.51-17.93s-16.51,6.52-16.51,17.93c0,20.38,21.91,23.13,21.91,37.8,0,5.1-2.24,6.93-5.81,6.93s-5.81-1.83-5.81-6.93v-5.1h-10.6v4.38c0,11.41,5.71,17.93,16.71,17.93s16.71-6.52,16.71-17.93Z"></path>
      <path class="cls-1" d="M170.48,72.14L159.06.81h-16.41l-11.41,71.33h10.29l1.94-12.94h13.76l1.94,12.94h11.31ZM144.9,49.52l5.4-36.07,5.4,36.07h-10.8Z"></path>
      <rect class="cls-1" x="175.67" y=".81" width="11.21" height="71.33"></rect>
      <polygon class="cls-1" points="220.51 43.51 208.99 .81 194.93 .81 194.93 72.14 205.02 72.14 205.02 20.48 218.98 72.14 230.49 72.14 230.49 .81 220.51 .81 220.51 43.51"></polygon>
      <polygon class="cls-1" points="235.28 .81 235.28 11.01 247 11.01 247 72.14 258.21 72.14 258.21 11.01 269.93 11.01 269.93 .81 235.28 .81"></polygon>
      <polygon class="cls-1" points="11.21 81.12 0 81.12 0 152.45 29.65 152.45 29.65 142.26 11.21 142.26 11.21 81.12"></polygon>
      <path class="cls-1" d="M43,81.12l-11.41,71.33h10.29l1.94-12.94h13.76l1.94,12.94h11.31l-11.41-71.33h-16.41ZM45.24,129.83l5.4-36.07,5.4,36.07h-10.8Z"></path>
      <path class="cls-1" d="M98.33,136.15c0,5.09-2.24,6.93-5.81,6.93s-5.81-1.83-5.81-6.93v-55.03h-11.21v54.31c0,11.41,5.71,17.93,16.71,17.93s16.71-6.52,16.71-17.93v-54.31h-10.6v55.03Z"></path>
      <path class="cls-1" d="M150.2,132.79c0-7.44-1.83-12.84-7.44-15.18,4.99-2.34,7.34-7.13,7.34-14.47v-5.6c0-11.01-4.99-16.41-16.61-16.41h-16.92v71.33h11.21v-29.04h3.87c5.09,0,7.34,2.45,7.34,9.07v11.21c0,5.81.41,6.93,1.02,8.76h11.41c-1.12-2.65-1.22-5.2-1.22-8.66v-11.01ZM138.89,105.68c0,5.71-2.55,7.54-6.73,7.54h-4.38v-21.91h5.4c3.97,0,5.71,2.24,5.71,7.34v7.03Z"></path>
      <polygon class="cls-1" points="157.53 152.45 188.1 152.45 188.1 142.26 168.74 142.26 168.74 121.38 184.13 121.38 184.13 111.19 168.74 111.19 168.74 91.31 188.1 91.31 188.1 81.12 157.53 81.12 157.53 152.45"></polygon>
      <polygon class="cls-1" points="220.51 123.82 208.99 81.12 194.93 81.12 194.93 152.45 205.02 152.45 205.02 100.79 218.98 152.45 230.49 152.45 230.49 81.12 220.51 81.12 220.51 123.82"></polygon>
      <polygon class="cls-1" points="235.28 91.31 247 91.31 247 152.45 258.21 152.45 258.21 91.31 269.93 91.31 269.93 81.12 235.28 81.12 235.28 91.31"></polygon>
    </g>
  </g>
</svg>