<?xml version="1.0" encoding="UTF-8"?>
<svg id="Layer_2" data-name="Layer 2" xmlns="http://www.w3.org/2000/svg" viewBox="0 0 562.88 73.06">
  <defs></defs>
  <g id="Layer_1" data-name="Layer 1">
    <g>
      <path class="cls-1" d="M45.35,46.12h0c-7.41,0-13.42,6.01-13.42,13.42h13.42v13.42h0c7.41,0,13.42-6.01,13.42-13.42v-.47c0-7.34-6.09-13.21-13.42-12.95Z"></path>
      <path class="cls-1" d="M35.94,22.93s0,0,0,0c0,.01,0,.02,0,.03-.43,1.15-.79,2.33-1.1,3.54-3.31,9.88-7.23,14.11-14.53,21.41l-6.89-6.89h0c7.41,0,13.42-6.01,13.42-13.42.26-7.33-5.61-13.42-12.95-13.42h-.47C6.01,14.19,0,20.2,0,27.61h13.42v13.42l-6.71-6.71-6,6,15.96,15.96H.08v16.59h16.59v-16.59l15.96,15.96,6-6-17.07-17.07,1.1,1.1,2.37,2.37c7.3-7.3,11.53-11.22,21.41-14.53,1.2-.3,2.38-.67,3.53-1.09.01,0,.02,0,.04-.01,0,0,0,0,0,0,12.92-4.81,22.12-17.25,22.12-31.85V.81h-4.35c-14.59,0-27.04,9.2-31.85,22.12Z"></path>
      <path class="cls-1" d="M108.22,17.22c0-5.09,2.04-7.03,5.6-7.03s5.6,1.94,5.6,7.03v2.96h10.6v-2.24c0-11.41-5.6-17.93-16.51-17.93s-16.51,6.52-16.51,17.93c0,20.38,21.91,23.13,21.91,37.8,0,5.09-2.24,6.93-5.81,6.93s-5.81-1.83-5.81-6.93v-5.1h-10.6v4.38c0,11.41,5.71,17.93,16.71,17.93s16.71-6.52,16.71-17.93c0-20.38-21.91-23.13-21.91-37.8Z"></path>
      <path class="cls-1" d="M145,.81l-11.41,71.33h10.29l1.94-12.94h13.76l1.94,12.94h11.31L161.41.81h-16.41ZM147.24,49.52l5.4-36.07,5.4,36.07h-10.8Z"></path>
      <rect class="cls-1" x="178.02" y=".81" width="11.21" height="71.33"></rect>
      <polygon class="cls-1" points="222.85 43.51 211.34 .81 197.27 .81 197.27 72.14 207.36 72.14 207.36 20.48 221.32 72.14 232.84 72.14 232.84 .81 222.85 .81 222.85 43.51"></polygon>
      <polygon class="cls-1" points="237.63 11 249.34 11 249.34 72.14 260.55 72.14 260.55 11 272.27 11 272.27 .81 237.63 .81 237.63 11"></polygon>
      <polygon class="cls-1" points="304.16 .81 292.96 .81 292.96 72.14 322.61 72.14 322.61 61.95 304.16 61.95 304.16 .81"></polygon>
      <path class="cls-1" d="M335.96.81l-11.41,71.33h10.29l1.94-12.94h13.76l1.94,12.94h11.31L352.36.81h-16.41ZM338.2,49.52l5.4-36.07,5.4,36.07h-10.8Z"></path>
      <path class="cls-1" d="M391.29,55.84c0,5.09-2.24,6.93-5.81,6.93s-5.81-1.83-5.81-6.93V.81h-11.21v54.31c0,11.41,5.71,17.93,16.71,17.93s16.71-6.52,16.71-17.93V.81h-10.6v55.03Z"></path>
      <path class="cls-1" d="M443.15,52.48c0-7.44-1.83-12.84-7.44-15.18,4.99-2.34,7.34-7.13,7.34-14.47v-5.6c0-11-4.99-16.41-16.61-16.41h-16.92v71.33h11.21v-29.04h3.87c5.09,0,7.34,2.45,7.34,9.07v11.21c0,5.81.41,6.93,1.02,8.76h11.41c-1.12-2.65-1.22-5.2-1.22-8.66v-11ZM431.84,25.37c0,5.71-2.55,7.54-6.73,7.54h-4.38V11h5.4c3.97,0,5.71,2.24,5.71,7.34v7.03Z"></path>
      <polygon class="cls-1" points="450.49 72.14 481.06 72.14 481.06 61.95 461.7 61.95 461.7 41.06 477.08 41.06 477.08 30.88 461.7 30.88 461.7 11 481.06 11 481.06 .81 450.49 .81 450.49 72.14"></polygon>
      <polygon class="cls-1" points="513.46 43.51 501.95 .81 487.89 .81 487.89 72.14 497.97 72.14 497.97 20.48 511.93 72.14 523.45 72.14 523.45 .81 513.46 .81 513.46 43.51"></polygon>
      <polygon class="cls-1" points="528.24 .81 528.24 11 539.96 11 539.96 72.14 551.16 72.14 551.16 11 562.88 11 562.88 .81 528.24 .81"></polygon>
    </g>
  </g>
</svg>