<?xml version="1.0" encoding="UTF-8"?>
<svg id="Layer_2" data-name="Layer 2" xmlns="http://www.w3.org/2000/svg" viewBox="0 0 269.93 153.37">
  <defs></defs>
  <g id="Layer_1" data-name="Layer 1">
    <g>
      <path class="cls-1" d="M257.1,72.42h0c3.55,0,6.42-2.88,6.42-6.42v-.22c0-3.51-2.91-6.32-6.42-6.2h0c-3.55,0-6.42,2.88-6.42,6.42h6.42v6.42Z"></path>
      <path class="cls-1" d="M248.23,50.71c.12-3.51-2.69-6.42-6.2-6.42h-.22c-3.55,0-6.42,2.88-6.42,6.42h6.42v6.42c3.55,0,6.42-2.88,6.42-6.42Z"></path>
      <path class="cls-1" d="M269.93,39.97v-2.09h-2.08c-6.99,0-12.93,4.41-15.23,10.6,0,0-.01,0-.02-.01-.03.1-.06.19-.09.29-.13.38-.25.77-.36,1.17-1.6,4.91-3.48,6.95-7.04,10.5l-3.3-3.3-3.21-3.21-2.87,2.87,7.64,7.64h-7.94v7.94h7.94v-7.94l7.64,7.64,2.87-2.87-3.21-3.21-3.3-3.3c3.56-3.56,5.59-5.44,10.5-7.04.39-.11.78-.22,1.16-.36.1-.03.19-.06.3-.09,0,0,0-.01-.01-.02,6.19-2.3,10.6-8.25,10.6-15.23Z"></path>
      <rect class="cls-1" x="235.41" y=".84" width="7.94" height="7.94"></rect>
      <path class="cls-1" d="M241.8,28.94h.22c3.51,0,6.32-2.91,6.2-6.42,0-3.55-2.88-6.42-6.42-6.42v6.42h-6.42c0,3.55,2.88,6.42,6.42,6.42Z"></path>
      <path class="cls-1" d="M257.09,13.65h0c3.51.12,6.42-2.69,6.42-6.2v-.22c0-3.55-2.88-6.42-6.42-6.42h0v6.42h-6.42c0,3.55,2.88,6.42,6.42,6.42Z"></path>
      <path class="cls-1" d="M238.59,19.3l6.51-6.51c3.56,3.56,5.44,5.59,7.04,10.5.11.39.22.78.36,1.16.03.1.06.19.09.3,0,0,.01,0,.02-.01,2.3,6.19,8.25,10.6,15.23,10.6h2.09v-2.09c0-6.99-4.41-12.93-10.6-15.23,0,0,0-.01.01-.02-.1-.03-.19-.06-.29-.09-.38-.13-.77-.25-1.17-.36-4.91-1.6-6.95-3.48-10.5-7.04l-1.13,1.13-.53.53,8.17-8.17-2.87-2.87-7.64,7.64-7.64,7.64,2.87,2.87Z"></path>
      <path class="cls-1" d="M21.72,72.42c3.55,0,6.42-2.88,6.42-6.42v-.22c0-3.51-2.91-6.32-6.42-6.2-3.55,0-6.42,2.88-6.42,6.42h6.42v6.42Z"></path>
      <path class="cls-1" d="M12.86,50.71c.12-3.51-2.69-6.42-6.2-6.42h-.22C2.89,44.29.01,47.17.01,50.71h6.42v6.42c3.55,0,6.42-2.88,6.42-6.42Z"></path>
      <path class="cls-1" d="M34.55,37.88h-2.09c-6.99,0-12.93,4.41-15.23,10.6,0,0-.01,0-.02-.01-.03.1-.06.19-.09.29-.13.38-.25.77-.36,1.17-1.6,4.91-3.48,6.95-7.04,10.5l-3.3-3.3-3.21-3.21-2.87,2.87,7.64,7.64H.05v7.94h7.94v-7.94l7.64,7.64,2.87-2.87-3.21-3.21-3.3-3.3c3.56-3.56,5.59-5.44,10.5-7.04.39-.11.78-.22,1.16-.36.1-.03.19-.06.3-.09,0,0,0-.01-.01-.02,6.19-2.3,10.6-8.25,10.6-15.23v-2.09Z"></path>
      <rect class="cls-1" x=".04" y=".84" width="7.94" height="7.94"></rect>
      <path class="cls-1" d="M0,22.51c0,3.55,2.88,6.42,6.42,6.42h.22c3.51,0,6.32-2.91,6.2-6.42,0-3.55-2.88-6.42-6.42-6.42v6.42H0Z"></path>
      <path class="cls-1" d="M21.71,13.65c3.51.12,6.42-2.69,6.42-6.2v-.22c0-3.55-2.88-6.42-6.42-6.42v6.42h-6.42c0,3.55,2.88,6.42,6.42,6.42Z"></path>
      <path class="cls-1" d="M16.76,23.3c.11.39.22.78.36,1.16.03.1.06.19.09.3,0,0,.01,0,.02-.01,2.3,6.19,8.25,10.6,15.23,10.6h2.09v-2.09c0-6.99-4.41-12.93-10.6-15.23,0,0,0-.01.01-.02-.1-.03-.19-.06-.29-.09-.38-.13-.77-.25-1.17-.36-4.91-1.6-6.95-3.48-10.5-7.04l3.3-3.3,3.21-3.21-2.87-2.87-7.64,7.64L.34,16.43l2.87,2.87,3.21-3.21,3.3-3.3c3.56,3.56,5.44,5.59,7.04,10.5Z"></path>
      <path class="cls-1" d="M63.02,72.96c11,0,16.71-6.52,16.71-17.94,0-20.38-21.91-23.13-21.91-37.8,0-5.1,2.04-7.03,5.6-7.03s5.6,1.94,5.6,7.03v2.96h10.6v-2.24c0-11.41-5.6-17.93-16.51-17.93s-16.51,6.52-16.51,17.93c0,20.38,21.91,23.13,21.91,37.8,0,5.09-2.24,6.93-5.81,6.93s-5.81-1.83-5.81-6.93v-5.1h-10.6v4.38c0,11.41,5.71,17.94,16.71,17.94Z"></path>
      <path class="cls-1" d="M111.02.81h-16.41l-11.41,71.33h10.29l1.94-12.94h13.76l1.94,12.94h11.31L111.02.81ZM96.85,49.52l5.4-36.07,5.4,36.07h-10.8Z"></path>
      <rect class="cls-1" x="127.63" y=".81" width="11.21" height="71.33"></rect>
      <polygon class="cls-1" points="182.45 72.14 182.45 .81 172.46 .81 172.46 43.51 160.95 .81 146.89 .81 146.89 72.14 156.97 72.14 156.97 20.48 170.93 72.14 182.45 72.14"></polygon>
      <polygon class="cls-1" points="198.96 72.14 210.16 72.14 210.16 11 221.88 11 221.88 .81 187.24 .81 187.24 11 198.96 11 198.96 72.14"></polygon>
      <polygon class="cls-1" points="11.21 81.12 0 81.12 0 152.45 29.65 152.45 29.65 142.26 11.21 142.26 11.21 81.12"></polygon>
      <path class="cls-1" d="M43,81.12l-11.41,71.33h10.29l1.94-12.94h13.76l1.94,12.94h11.31l-11.41-71.33h-16.41ZM45.24,129.83l5.4-36.07,5.4,36.07h-10.8Z"></path>
      <path class="cls-1" d="M98.33,136.15c0,5.1-2.24,6.93-5.81,6.93s-5.81-1.83-5.81-6.93v-55.03h-11.21v54.31c0,11.41,5.71,17.93,16.71,17.93s16.71-6.52,16.71-17.93v-54.31h-10.6v55.03Z"></path>
      <path class="cls-1" d="M150.2,132.79c0-7.44-1.83-12.84-7.44-15.18,4.99-2.34,7.34-7.13,7.34-14.47v-5.61c0-11-4.99-16.41-16.61-16.41h-16.92v71.33h11.21v-29.04h3.87c5.09,0,7.34,2.45,7.34,9.07v11.21c0,5.81.41,6.93,1.02,8.76h11.41c-1.12-2.65-1.22-5.2-1.22-8.66v-11ZM138.89,105.68c0,5.71-2.55,7.54-6.73,7.54h-4.38v-21.91h5.4c3.97,0,5.71,2.24,5.71,7.34v7.03Z"></path>
      <polygon class="cls-1" points="157.53 152.45 188.1 152.45 188.1 142.26 168.74 142.26 168.74 121.37 184.13 121.37 184.13 111.18 168.74 111.18 168.74 91.31 188.1 91.31 188.1 81.12 157.53 81.12 157.53 152.45"></polygon>
      <polygon class="cls-1" points="220.51 123.82 208.99 81.12 194.93 81.12 194.93 152.45 205.02 152.45 205.02 100.79 218.98 152.45 230.49 152.45 230.49 81.12 220.51 81.12 220.51 123.82"></polygon>
      <polygon class="cls-1" points="235.28 81.12 235.28 91.31 247 91.31 247 152.45 258.21 152.45 258.21 91.31 269.93 91.31 269.93 81.12 235.28 81.12"></polygon>
    </g>
  </g>
</svg>